<svg xmlns="http://www.w3.org/2000/svg" width="50" height="50" viewBox="0 0 50 50">
  <g id="Group_291" data-name="Group 291" transform="translate(-367 -1045)">
    <circle id="Ellipse_83" data-name="Ellipse 83" cx="25" cy="25" r="25" transform="translate(367 1045)" fill="#f68a40"/>
    <path id="Icon_awesome-star" data-name="Icon awesome-star" d="M11.88.869,8.828,7.334,2,8.374a1.583,1.583,0,0,0-.827,2.666L6.113,16.07l-1.168,7.1A1.509,1.509,0,0,0,7.113,24.82l6.107-3.354,6.107,3.354A1.51,1.51,0,0,0,21.5,23.174l-1.168-7.1,4.939-5.029a1.583,1.583,0,0,0-.827-2.666l-6.827-1.04L14.562.869A1.469,1.469,0,0,0,11.88.869Z" transform="translate(378.779 1057.499)" fill="#fff"/>
  </g>
</svg>
