<svg id="Group_18589" data-name="Group 18589" xmlns="http://www.w3.org/2000/svg" xmlns:xlink="http://www.w3.org/1999/xlink" width="269.007" height="210.827" viewBox="0 0 269.007 210.827">
  <defs>
    <clipPath id="clip-path">
      <rect id="Rectangle_5168" data-name="Rectangle 5168" width="269.007" height="210.827" fill="none"/>
    </clipPath>
    <clipPath id="clip-path-4">
      <rect id="Rectangle_5152" data-name="Rectangle 5152" width="257.066" height="21.547" fill="#241c7f"/>
    </clipPath>
    <clipPath id="clip-path-5">
      <rect id="Rectangle_5153" data-name="Rectangle 5153" width="200.491" height="24.605" fill="#241c7f"/>
    </clipPath>
    <clipPath id="clip-path-6">
      <rect id="Rectangle_5154" data-name="Rectangle 5154" width="73.472" height="11.992" fill="none"/>
    </clipPath>
    <clipPath id="clip-path-7">
      <rect id="Rectangle_5158" data-name="Rectangle 5158" width="113.672" height="132.589" fill="none"/>
    </clipPath>
    <clipPath id="clip-path-8">
      <path id="Path_43030" data-name="Path 43030" d="M350.373,294.629l67.852,24.026L379.071,427.218,311,402.524Z" transform="translate(-310.998 -294.629)" fill="none"/>
    </clipPath>
    <clipPath id="clip-path-9">
      <rect id="Rectangle_5155" data-name="Rectangle 5155" width="94.009" height="22.765" fill="none"/>
    </clipPath>
    <clipPath id="clip-path-10">
      <rect id="Rectangle_5156" data-name="Rectangle 5156" width="71.99" height="24.103" fill="none"/>
    </clipPath>
    <clipPath id="clip-path-11">
      <rect id="Rectangle_5157" data-name="Rectangle 5157" width="26.933" height="9.984" fill="none"/>
    </clipPath>
    <clipPath id="clip-path-13">
      <path id="Path_43035" data-name="Path 43035" d="M314.251,394.172,382.1,418.2,342.949,526.761l-68.074-24.694Z" transform="translate(-274.875 -394.172)" fill="none"/>
    </clipPath>
    <clipPath id="clip-path-17">
      <rect id="Rectangle_5165" data-name="Rectangle 5165" width="47.273" height="68.916" transform="translate(0 44.489) rotate(-70.24)" fill="none"/>
    </clipPath>
  </defs>
  <g id="Group_18554" data-name="Group 18554" transform="translate(0 0)">
    <g id="Group_18553" data-name="Group 18553" clip-path="url(#clip-path)">
      <g id="Group_18552" data-name="Group 18552">
        <g id="Group_18551" data-name="Group 18551" clip-path="url(#clip-path)">
          <g id="Group_18546" data-name="Group 18546">
            <g id="Group_18545" data-name="Group 18545" clip-path="url(#clip-path)">
              <path id="Path_43008" data-name="Path 43008" d="M57.764,449.013S94.97,485.155,148.051,470.3s78.531-11.863,91.424-1.925,49.993.7,69.631-32.077-15.377-54.271-23.088-75.008-.248-42.477-33.879-44.705-67.5-11.447-88.993,23.568S94.038,373.42,74.491,380.607s-43.134,37.446-16.727,68.406" transform="translate(-46 -292.564)" fill="#07006e"/>
              <g id="Group_18510" data-name="Group 18510" transform="translate(6.795 138.046)" opacity="0.25">
                <g id="Group_18509" data-name="Group 18509">
                  <g id="Group_18508" data-name="Group 18508" clip-path="url(#clip-path-4)">
                    <path id="Path_43009" data-name="Path 43009" d="M60.985,558.837s49.025,16.532,103.181,2.85,62.136-18.812,76.958-10.831,43.324,5.7,43.324,5.7,20.858-2.264,32.091-4.552" transform="translate(-60.229 -546.317)" fill="#241c7f" stroke="#7d72b3" stroke-linecap="round" stroke-linejoin="round" stroke-width="3"/>
                  </g>
                </g>
              </g>
              <g id="Group_18513" data-name="Group 18513" transform="translate(23.901 90.752)" opacity="0.25">
                <g id="Group_18512" data-name="Group 18512">
                  <g id="Group_18511" data-name="Group 18511" clip-path="url(#clip-path-5)">
                    <path id="Path_43010" data-name="Path 43010" d="M94.928,453.221s.6,21.168,88.3,22.982,67.132-19.353,110.678-11.491" transform="translate(-94.172 -452.465)" fill="#241c7f" stroke="#7d72b3" stroke-linecap="round" stroke-linejoin="round" stroke-width="3"/>
                  </g>
                </g>
              </g>
              <g id="Group_18516" data-name="Group 18516" transform="translate(164.83 51.846)" opacity="0.25">
                <g id="Group_18515" data-name="Group 18515">
                  <g id="Group_18514" data-name="Group 18514" clip-path="url(#clip-path-6)">
                    <path id="Path_43011" data-name="Path 43011" d="M374.59,381.693c23.985-7.494,50.034-9.127,71.96,4.8" transform="translate(-373.834 -375.26)" fill="none" stroke="#7d72b3" stroke-linecap="round" stroke-linejoin="round" stroke-width="3"/>
                  </g>
                </g>
              </g>
              <path id="Path_43012" data-name="Path 43012" d="M429.535,308.5s19.435-20.147,23.939-21.569,9.48-2.133,10.428,0-.237,7.822-1.9,10.666-26.072,26.309-26.072,26.309Z" transform="translate(-236.261 -278.555)" fill="#f5c2a8"/>
              <path id="Path_43013" data-name="Path 43013" d="M497.353,348.237s13.036-8.533,17.065-3.318-4.977,19.435-28.442,28.916,11.377-25.6,11.377-25.6" transform="translate(-260.23 -307.151)" fill="#f5c2a8"/>
              <path id="Path_43014" data-name="Path 43014" d="M491.026,403.289s9.718-8.533,12.088-4.266-3.792,23.7-24.887,36.738,12.8-32.472,12.8-32.472" transform="translate(-256.985 -334.235)" fill="#f5c2a8"/>
              <path id="Path_43015" data-name="Path 43015" d="M457.165,519.665s22.754,1.185,28.916,1.185,9.244,3.792,1.422,7.347-24.887,9.955-35.79,7.11,5.451-15.643,5.451-15.643" transform="translate(-245.404 -394.674)" fill="#f5c2a8"/>
              <path id="Path_43016" data-name="Path 43016" d="M465.547,293.342l3.34-2.266s10.614,2.028,12.642,4.532l-.835,3.22Z" transform="translate(-254.125 -281.278)" fill="#f3b595"/>
              <path id="Path_43017" data-name="Path 43017" d="M521.824,344.561a21.142,21.142,0,0,1,3.936-.953c.6.119-5.01,18.6-6.679,20.99a17.263,17.263,0,0,1-4.771,4.174h-1.192Z" transform="translate(-277.724 -307.333)" fill="#f3b595"/>
              <path id="Path_43018" data-name="Path 43018" d="M496.172,409.181s1.073-1.631,2.266-1.864-4.055,24.238-6.679,27.85-7.752,5.011-7.752,5.011Z" transform="translate(-263.283 -338.941)" fill="#f3b595"/>
              <path id="Path_43019" data-name="Path 43019" d="M464.056,519.459l11.807.835s-2.743,8.229-10.138,11.926-7.752,3.578-7.752,3.578Z" transform="translate(-250.369 -394.572)" fill="#f3b595"/>
              <path id="Path_43020" data-name="Path 43020" d="M56.984,477.158l73.021-36.3s7.176-2.533,13.929-14.774,17.728-30.813,17.728-30.813,29.968-23.637,37.144-23.637,29.124,6.753,31.658,6.753,3.8-.844,3.8.844-4.643,11.819-21.1,8.864l-8.689.607s-11.971,12.928-12.29,13.566-.8,11.81-1.277,14.683,46.583,51.629,46.583,51.629-46.46,15.114-49.539,15.393-13.154,5.877-22.11,3.638l-93.2,43.1A83.225,83.225,0,0,1,62,510c-3.639-11.195-3.359-20.151-4.758-25.748s-.26-7.1-.26-7.1" transform="translate(-51.232 -321.241)" fill="#f5c2a8"/>
              <path id="Path_43021" data-name="Path 43021" d="M87.182,618.678l91.261-41.611s18.441.946,31.681-17.5l42.557.945-58.634,20.806a29.746,29.746,0,0,1-11.822.946L89.546,625.3Z" transform="translate(-66.429 -414.471)" fill="#f3b595"/>
              <path id="Path_43022" data-name="Path 43022" d="M358.467,275.395l57.359,21.274s8.825,1.8,3.53,12.884S375.821,430,375.821,430s-2.353,11.985-12.942,7.791-52.947-19.776-52.947-19.776-12.648-2.1-6.765-15.581,41.181-113.859,41.181-113.859l3.2-8.472s1.621-7.577,10.923-4.711" transform="translate(-172.799 -273.178)" fill="#e9915b"/>
              <path id="Path_43023" data-name="Path 43023" d="M354.052,272.268l57.359,20.884s8.825,1.765,3.53,12.649S371.407,424.05,371.407,424.05s-2.353,11.766-12.942,7.648-52.947-19.414-52.947-19.414-12.648-2.059-6.765-15.3,41.181-111.777,41.181-111.777l3.2-8.317s1.621-7.439,10.923-4.625" transform="translate(-170.609 -271.633)" fill="#efeee6"/>
              <path id="Path_43024" data-name="Path 43024" d="M350.136,294.827l67.851,24.026L378.834,427.415,310.76,402.722Z" transform="translate(-177.34 -283.139)" fill="#fff"/>
              <ellipse id="Ellipse_788" data-name="Ellipse 788" cx="6.451" cy="6.451" rx="6.451" ry="6.451" transform="translate(156.443 133.97)" fill="none" stroke="#e28157" stroke-miterlimit="10" stroke-width="3"/>
              <path id="Path_43025" data-name="Path 43025" d="M463.257,307.42l-24.629-8.726a.782.782,0,0,1,.522-1.473l24.629,8.725a.782.782,0,0,1-.522,1.473" transform="translate(-240.514 -284.304)" fill="#cccbb3"/>
              <g id="Group_18530" data-name="Group 18530" transform="translate(133.54 11.588)" opacity="0.92">
                <g id="Group_18529" data-name="Group 18529">
                  <g id="Group_18528" data-name="Group 18528" clip-path="url(#clip-path-7)">
                    <g id="Group_18527" data-name="Group 18527" transform="translate(0)">
                      <g id="Group_18526" data-name="Group 18526" clip-path="url(#clip-path-8)">
                        <path id="Path_43026" data-name="Path 43026" d="M344.362,354.648s10.021,16.444,30.48,16.029,29.33,3.021,33.043,7.79,17.906,4.891,28.005-5.07-.492-20.935-1.34-29.1S438.4,329,426.519,325.079s-23.2-10.378-34.176.215-27.928,5.546-35.622,6.316-18.979,9.459-12.359,23.038" transform="translate(-326.556 -306.973)" fill="#07006e"/>
                        <g id="Group_18519" data-name="Group 18519" transform="translate(16.081 44.414)" opacity="0.25">
                          <g id="Group_18518" data-name="Group 18518">
                            <g id="Group_18517" data-name="Group 18517" clip-path="url(#clip-path-9)">
                              <path id="Path_43027" data-name="Path 43027" d="M344.411,384.265s16.089,10.491,36.825,10.6,24.081-1,28.669,3.247,15.044,6.069,15.044,6.069,7.708,1.121,11.958,1.341" transform="translate(-343.655 -383.509)" fill="none" stroke="#7d72b3" stroke-linecap="round" stroke-linejoin="round" stroke-width="3"/>
                            </g>
                          </g>
                        </g>
                        <g id="Group_18522" data-name="Group 18522" transform="translate(27.692 24.771)" opacity="0.25">
                          <g id="Group_18521" data-name="Group 18521">
                            <g id="Group_18520" data-name="Group 18520" clip-path="url(#clip-path-10)">
                              <path id="Path_43028" data-name="Path 43028" d="M367.468,345.285s-1.747,7.665,29.609,16.454,25.928-.728,40.851,6.138" transform="translate(-366.694 -344.529)" fill="none" stroke="#7d72b3" stroke-linecap="round" stroke-linejoin="round" stroke-width="3"/>
                            </g>
                          </g>
                        </g>
                        <g id="Group_18525" data-name="Group 18525" transform="translate(81.452 25.833)" opacity="0.25">
                          <g id="Group_18524" data-name="Group 18524">
                            <g id="Group_18523" data-name="Group 18523" clip-path="url(#clip-path-11)">
                              <path id="Path_43029" data-name="Path 43029" d="M474.131,347.461c9.317-.469,18.832,1.361,25.422,8.4" transform="translate(-473.376 -346.636)" fill="none" stroke="#7d72b3" stroke-linecap="round" stroke-linejoin="round" stroke-width="3"/>
                            </g>
                          </g>
                        </g>
                      </g>
                    </g>
                  </g>
                </g>
              </g>
              <g id="Group_18544" data-name="Group 18544" transform="translate(115.337 61.751)" opacity="0.92">
                <g id="Group_18543" data-name="Group 18543">
                  <g id="Group_18542" data-name="Group 18542" clip-path="url(#clip-path-7)">
                    <g id="Group_18541" data-name="Group 18541">
                      <g id="Group_18540" data-name="Group 18540" clip-path="url(#clip-path-13)">
                        <path id="Path_43031" data-name="Path 43031" d="M308.24,454.191s10.021,16.444,30.48,16.03,29.33,3.021,33.043,7.79,17.906,4.89,28.006-5.07-.493-20.935-1.34-29.105,3.852-15.292-8.031-19.213-23.2-10.377-34.176.215-27.928,5.546-35.622,6.316-18.979,9.459-12.359,23.038" transform="translate(-290.434 -406.516)" fill="#07006e"/>
                        <g id="Group_18533" data-name="Group 18533" transform="translate(16.082 44.414)" opacity="0.25">
                          <g id="Group_18532" data-name="Group 18532">
                            <g id="Group_18531" data-name="Group 18531" clip-path="url(#clip-path-9)">
                              <path id="Path_43032" data-name="Path 43032" d="M308.289,483.808s16.088,10.491,36.825,10.6,24.081-1,28.668,3.246,15.045,6.069,15.045,6.069,7.708,1.122,11.958,1.341" transform="translate(-307.533 -483.052)" fill="none" stroke="#241c7f" stroke-linecap="round" stroke-linejoin="round" stroke-width="3"/>
                            </g>
                          </g>
                        </g>
                        <g id="Group_18536" data-name="Group 18536" transform="translate(27.692 24.772)" opacity="0.25">
                          <g id="Group_18535" data-name="Group 18535">
                            <g id="Group_18534" data-name="Group 18534" clip-path="url(#clip-path-10)">
                              <path id="Path_43033" data-name="Path 43033" d="M331.346,444.828s-1.747,7.665,29.609,16.454,25.927-.728,40.851,6.138" transform="translate(-330.572 -444.073)" fill="none" stroke="#7d72b3" stroke-linecap="round" stroke-linejoin="round" stroke-width="3"/>
                            </g>
                          </g>
                        </g>
                        <g id="Group_18539" data-name="Group 18539" transform="translate(81.452 25.833)" opacity="0.25">
                          <g id="Group_18538" data-name="Group 18538">
                            <g id="Group_18537" data-name="Group 18537" clip-path="url(#clip-path-11)">
                              <path id="Path_43034" data-name="Path 43034" d="M438.009,447c9.317-.469,18.832,1.361,25.422,8.4" transform="translate(-437.254 -446.179)" fill="none" stroke="#7d72b3" stroke-linecap="round" stroke-linejoin="round" stroke-width="3"/>
                            </g>
                          </g>
                        </g>
                      </g>
                    </g>
                  </g>
                </g>
              </g>
              <path id="Path_43036" data-name="Path 43036" d="M282.37,475.457s-6.113,27.206-20.056,31.087-14.5,3.289-14.5,3.289,24.418-.263,34.56-34.376" transform="translate(-146.112 -372.744)" fill="#f3b595"/>
              <rect id="Rectangle_5163" data-name="Rectangle 5163" width="47.273" height="68.916" transform="translate(141.322 103.688) rotate(-70.24)" fill="#f4ce23"/>
            </g>
          </g>
          <g id="Group_18548" data-name="Group 18548" transform="translate(141.493 59.251)">
            <g id="Group_18547" data-name="Group 18547" transform="translate(0 0)" clip-path="url(#clip-path-17)">
              <path id="Path_43037" data-name="Path 43037" d="M376.727,449.309l6.884,2.473-.132.484-5.2,3.891-1.763-6.448Z" transform="translate(-351.454 -419.024)" fill="#b3b8bf"/>
              <path id="Path_43038" data-name="Path 43038" d="M367.648,446.8l-1.093,2.855-5.839.916-3.514,9.783,8.216,2.951,8.215,2.951,3.514-9.782-3.523-4.449.784-2.966Z" transform="translate(-341.871 -417.781)" fill="#f3b595"/>
              <path id="Path_43039" data-name="Path 43039" d="M377.485,423a.794.794,0,0,0-.92-.681c-.861.035-1.167,3.355-1.032,3.882s.693.424.868.467c-.412,1.9-.839,3.154-.388,4.178a23.9,23.9,0,0,0,2.113,3.82,4.916,4.916,0,0,0,2.747.987,23.917,23.917,0,0,0,4.061-1.6c1-.5,1.469-1.744,2.359-3.47.162.078.528.512.967.192s2.317-3.078,1.674-3.652a.793.793,0,0,0-1.142-.06,6.925,6.925,0,0,0,1.123-4.942c-.327-1.934-2.09-3.511-4.176-4.329-2.13-.7-4.493-.6-5.976.682A6.923,6.923,0,0,0,377.485,423Z" transform="translate(-350.949 -403.174)" fill="#f5c2a8"/>
              <path id="Path_43040" data-name="Path 43040" d="M362.935,451.9l1.334-.04,1.246-.508,2.419,3.717.828.3,4.234-1.33,1.64,2.068,1.428,7.55L367.5,478.369a26.4,26.4,0,0,1-12.158-4.034l.382-17.423,7.211-5.01Z" transform="translate(-340.948 -420.039)" fill="#00b1c7"/>
              <path id="Path_43041" data-name="Path 43041" d="M387.064,456.354l-.747-2.138-4.342,2.572,1.561,3.821Z" transform="translate(-354.16 -421.459)" fill="#00b3d2"/>
              <path id="Path_43042" data-name="Path 43042" d="M373.019,450.453l1.928-1.144,1.713,4.747-3.729,1.887Z" transform="translate(-349.674 -419.024)" fill="#00b3d2"/>
              <path id="Path_43043" data-name="Path 43043" d="M355.121,451.28l-9.939-.3a1.066,1.066,0,0,0-.949.56l-7.381,12.321a26.32,26.32,0,0,0,4.465,6.311l2.827-3.778a.111.111,0,0,1,.2.1l-1.6,5.054a26.138,26.138,0,0,0,8.656,5.161l.595-1.656Z" transform="translate(-331.776 -419.852)" fill="#fff"/>
              <path id="Path_43044" data-name="Path 43044" d="M367.7,451.527l-1.132-.053-4.355,3.637,3.371,1.331-2.521.439,1.5,18.413Z" transform="translate(-344.358 -420.098)" fill="#eceff2"/>
              <path id="Path_43045" data-name="Path 43045" d="M378.994,458.459l7.872,6.062a1.066,1.066,0,0,1,.376,1.037l-2.147,14.2a26.3,26.3,0,0,1-7.461,2.026l.224-4.713a.11.11,0,0,0-.212-.049l-1.979,4.919a26.163,26.163,0,0,1-9.962-1.527h0l.6-1.655Z" transform="translate(-346.089 -423.563)" fill="#eceff2"/>
              <path id="Path_43046" data-name="Path 43046" d="M379.579,458.459l.5.375,1.448,5.881-3.447-1.118,1.665,1.944-12.863,13.218Z" transform="translate(-346.675 -423.564)" fill="#fff"/>
              <path id="Path_43047" data-name="Path 43047" d="M368.2,499.223a.576.576,0,1,0,.348.737.577.577,0,0,0-.348-.737" transform="translate(-346.944 -443.768)" fill="#d6d9de"/>
              <path id="Path_43048" data-name="Path 43048" d="M389.212,426.011l.53.17.383-.537.67-.315c1.207-2.336,2.674-6.119.2-6.884,0,0,.781-2.863-3.808-3.895s-7.591,1.09-8.2,3.541a12.519,12.519,0,0,1-.812,2.7l.316.67-.17.706.44.128a11.632,11.632,0,0,1,.741-1.213,4.727,4.727,0,0,0,.527-1.177s5.069,2.194,7.111.915c1.262-.79,3.935-1.984,3.086.695-.251.794-.965,1.864-.715,2.919a1.645,1.645,0,0,1-.3,1.575Z" transform="translate(-352.274 -401.649)" fill="#323485"/>
              <path id="Path_43049" data-name="Path 43049" d="M366.885,478.894l3.721-5.95,3.618-13.065.6-.035-.334-.816-.828-.3-.785.4.449.428-5.536,12.492Z" transform="translate(-346.675 -423.698)" fill="#008fa3"/>
              <path id="Path_43050" data-name="Path 43050" d="M368.172,499.191a.525.525,0,1,0,.318.671.525.525,0,0,0-.318-.671" transform="translate(-346.964 -443.754)" fill="#fff"/>
              <path id="Path_43051" data-name="Path 43051" d="M335.114,476.18l-2.035,2.052,6.476,4.479-2.039-5.3Z" transform="translate(-329.904 -432.354)" fill="#fff"/>
              <path id="Path_43052" data-name="Path 43052" d="M398.413,500.727l-.126,2.332-5.734-1.138Z" transform="translate(-359.408 -444.531)" fill="#eceff2"/>
            </g>
          </g>
          <g id="Group_18550" data-name="Group 18550">
            <g id="Group_18549" data-name="Group 18549" clip-path="url(#clip-path)">
              <path id="Path_43053" data-name="Path 43053" d="M439.693,439.621c-1.85,5.15-8.44,7.493-14.723,5.236a14.1,14.1,0,0,1-4.788-2.867c-2.274-.15-6.962-.516-5.08-.85a3.9,3.9,0,0,0,2.561-2.332,8.99,8.99,0,0,1-.714-7.358c1.85-5.15,8.44-7.493,14.719-5.237s9.875,8.258,8.025,13.408" transform="translate(-228.885 -347.89)" fill="#eceff2"/>
              <path id="Path_43054" data-name="Path 43054" d="M363.584,498.905a5.043,5.043,0,1,1-5.042-5.042,5.042,5.042,0,0,1,5.042,5.042" transform="translate(-198.541 -381.875)" fill="#f47d31"/>
              <path id="Path_43055" data-name="Path 43055" d="M408.512,514.881a5.043,5.043,0,1,1-5.042-5.042,5.042,5.042,0,0,1,5.042,5.042" transform="translate(-220.829 -389.8)" fill="#f47d31"/>
              <path id="Path_43056" data-name="Path 43056" d="M165.836,485.366l-93.2,43.1A83.24,83.24,0,0,1,62,507.756c-3.638-11.2-3.358-20.151-4.758-25.749s-.26-7.1-.26-7.1l73.022-36.3s7.176-2.532,13.929-14.773,17.728-30.813,17.728-30.813,29.968-23.637,37.144-23.637,29.125,6.754,31.657,6.754,3.8-.844,3.8.844-4.643,11.819-21.1,8.864l-8.69.607s-11.97,12.928-12.289,13.566c-.284.568-.695,9.483-1.119,13.461" transform="translate(-51.232 -320.126)" fill="#f5c2a8"/>
              <path id="Path_43057" data-name="Path 43057" d="M429.09,334.688l-.584,1.454a4.544,4.544,0,0,1-5.891,2.517L390,325.572a4.16,4.16,0,0,1-.588-.289l-7.354.314,5.389-2.653a4.522,4.522,0,0,1,.036-3.264l.584-1.454a4.543,4.543,0,0,1,5.891-2.517l32.61,13.087a4.543,4.543,0,0,1,2.517,5.891" transform="translate(-212.711 -293.337)" fill="#76d0f2"/>
              <line id="Line_158" data-name="Line 158" x2="32.008" y2="12.845" transform="translate(180.113 24.722)" fill="none" stroke="#323485" stroke-miterlimit="10" stroke-width="1"/>
              <line id="Line_159" data-name="Line 159" x2="32.008" y2="12.845" transform="translate(179.105 27.233)" fill="none" stroke="#323485" stroke-miterlimit="10" stroke-width="1"/>
              <line id="Line_160" data-name="Line 160" x2="22.332" y2="8.962" transform="translate(178.186 29.525)" fill="none" stroke="#323485" stroke-miterlimit="10" stroke-width="1"/>
              <path id="Path_43058" data-name="Path 43058" d="M412.233,360.551,411.65,362a4.543,4.543,0,0,0,2.517,5.891l32.61,13.087a4.173,4.173,0,0,0,.624.2l5.1,5.311-2.06-5.643a4.519,4.519,0,0,0,2.23-2.384l.584-1.454a4.544,4.544,0,0,0-2.517-5.891l-32.61-13.087a4.543,4.543,0,0,0-5.891,2.517" transform="translate(-227.227 -314.333)" fill="#fff"/>
              <line id="Line_161" data-name="Line 161" x1="32.008" y1="12.845" transform="translate(190.697 46.427)" fill="none" stroke="#323485" stroke-miterlimit="10" stroke-width="1"/>
              <line id="Line_162" data-name="Line 162" x1="32.008" y1="12.845" transform="translate(189.69 48.938)" fill="none" stroke="#323485" stroke-miterlimit="10" stroke-width="1"/>
              <line id="Line_163" data-name="Line 163" x1="22.332" y1="8.962" transform="translate(198.446 55.113)" fill="none" stroke="#323485" stroke-miterlimit="10" stroke-width="1"/>
              <path id="Path_43059" data-name="Path 43059" d="M403.153,516.526c-.049.139-.093.282-.15.419a1.085,1.085,0,0,1-1.275.739,3.08,3.08,0,0,1-.851-.262.964.964,0,0,1-.418-1.381,2.167,2.167,0,0,1,1.174-.986,3.565,3.565,0,0,1,1.433-.231.371.371,0,0,1,.255.112.275.275,0,0,1,.019.256.4.4,0,0,1-.253.141c-.308.045-.626.043-.93.106a1.84,1.84,0,0,0-1.147.7c-.3.4-.206.733.259.9a2.931,2.931,0,0,0,.563.141.572.572,0,0,0,.675-.388c.078-.178.153-.357.229-.536.1-.24.157-.275.424-.246a5.573,5.573,0,0,1,2.092.668c.351.193.673.439,1.005.665a.265.265,0,0,1,.087.357c-.083.2-.167.395-.246.593a.569.569,0,0,0,.213.785,3.368,3.368,0,0,0,.622.349.455.455,0,0,0,.605-.28,1.623,1.623,0,0,0-.1-1.288,3.851,3.851,0,0,0-1.773-1.772,13.721,13.721,0,0,0-1.273-.543c-.119-.049-.239-.09-.253-.24a.265.265,0,0,1,.359-.271,6.126,6.126,0,0,1,1.812.829,4.549,4.549,0,0,1,1.422,1.444,2.3,2.3,0,0,1,.312,1.98.974.974,0,0,1-1.207.654,2.214,2.214,0,0,1-1.092-.7,1.032,1.032,0,0,1-.148-1.083c.053-.145.121-.284.172-.429a.152.152,0,0,0-.023-.134,5.618,5.618,0,0,0-2.589-1.064" transform="translate(-221.769 -392.272)" fill="#fff"/>
              <path id="Path_43060" data-name="Path 43060" d="M359.568,502.406c.055-.132.1-.25.156-.377-.1-.063-.193-.121-.285-.188a2.44,2.44,0,0,1-.808-2.795.288.288,0,0,1,.3-.219.264.264,0,0,1,.208.359,3.365,3.365,0,0,0-.135.623,1.909,1.909,0,0,0,2.286,1.962c.024-.005.047-.013.1-.028-.065-.154-.122-.3-.194-.449-.012-.024-.086-.029-.129-.025a1.375,1.375,0,0,1-1.5-1.028,1.336,1.336,0,0,1,.055-.849c.107-.273.218-.546.338-.814a.32.32,0,0,0,0-.281q-.467-1.108-.926-2.219a1.159,1.159,0,0,1-.055-.155.232.232,0,0,1,.145-.291.243.243,0,0,1,.316.09.673.673,0,0,1,.066.134q1.639,3.937,3.276,7.873c.05.121.1.244-.006.362a.264.264,0,0,1-.452-.107q-.324-.771-.643-1.545c-.026-.064-.043-.132-.068-.208a2.554,2.554,0,0,1-1.379,0l-.157.381c.14.057.276.113.413.17.114.048.231.093.342.149a.228.228,0,0,1,.122.289.237.237,0,0,1-.271.182.349.349,0,0,1-.1-.022c-.626-.257-1.252-.514-1.877-.776a.37.37,0,0,1-.148-.119.252.252,0,0,1,.293-.374c.185.072.369.149.554.223l.171.071m.719-3.239a1.14,1.14,0,0,0-.131,1.164.828.828,0,0,0,.783.425l-.652-1.589" transform="translate(-201.009 -382.74)" fill="#fff"/>
              <path id="Path_43061" data-name="Path 43061" d="M364.79,500.379c-.1.244-.2.488-.3.731-.075.179-.212.245-.363.179s-.19-.2-.117-.376q.285-.7.574-1.394a.862.862,0,0,0-1.316-1.041.262.262,0,0,1-.373-.034.256.256,0,0,1,.047-.37,1.413,1.413,0,0,1,1.473-.16,1.392,1.392,0,0,1,.634,1.844c-.095.2-.172.413-.257.62" transform="translate(-203.172 -383.817)" fill="#fff"/>
              <path id="Path_43062" data-name="Path 43062" d="M366.9,505.744c-.1.152-.2.309-.305.455a.249.249,0,0,1-.367.055.262.262,0,0,1-.041-.371,4.79,4.79,0,0,0,.251-.42c.085-.166.209-.233.356-.171a.255.255,0,0,1,.12.373l-.028.069.014.01" transform="translate(-204.809 -387.533)" fill="#fff"/>
            </g>
          </g>
        </g>
      </g>
    </g>
  </g>
</svg>
